<svg width="30" height="30" viewBox="0 0 30 30" fill="none" xmlns="http://www.w3.org/2000/svg">
<path d="M8.75 26.875C7.25816 26.875 5.82742 26.2824 4.77252 25.2275C3.71763 24.1726 3.125 22.7418 3.125 21.25C3.125 19.7582 3.71763 18.3274 4.77252 17.2725C5.82742 16.2176 7.25816 15.625 8.75 15.625C10.2418 15.625 11.6726 16.2176 12.7275 17.2725C13.7824 18.3274 14.375 19.7582 14.375 21.25C14.375 22.7418 13.7824 24.1726 12.7275 25.2275C11.6726 26.2824 10.2418 26.875 8.75 26.875ZM21.25 14.375C20.5113 14.375 19.7799 14.2295 19.0974 13.9468C18.4149 13.6641 17.7949 13.2498 17.2725 12.7275C16.7502 12.2051 16.3359 11.5851 16.0532 10.9026C15.7705 10.2201 15.625 9.48869 15.625 8.75C15.625 8.01131 15.7705 7.27986 16.0532 6.59741C16.3359 5.91495 16.7502 5.29485 17.2725 4.77252C17.7949 4.25019 18.4149 3.83586 19.0974 3.55318C19.7799 3.2705 20.5113 3.125 21.25 3.125C22.7418 3.125 24.1726 3.71763 25.2275 4.77252C26.2824 5.82742 26.875 7.25816 26.875 8.75C26.875 10.2418 26.2824 11.6726 25.2275 12.7275C24.1726 13.7824 22.7418 14.375 21.25 14.375ZM3.75 10C3.75 8.3424 4.40848 6.75269 5.58058 5.58058C6.75269 4.40848 8.3424 3.75 10 3.75H13.75V6.25H10C9.00544 6.25 8.05161 6.64509 7.34835 7.34835C6.64509 8.05161 6.25 9.00544 6.25 10V13.75H3.75V10ZM23.75 16.25V20C23.75 20.9946 23.3549 21.9484 22.6517 22.6517C21.9484 23.3549 20.9946 23.75 20 23.75H16.25V26.25H20C21.6576 26.25 23.2473 25.5915 24.4194 24.4194C25.5915 23.2473 26.25 21.6576 26.25 20V16.25H23.75Z" fill="white"/>
</svg>
