<svg width="491" height="94" viewBox="0 0 491 94" fill="none" xmlns="http://www.w3.org/2000/svg">
<rect x="43.769" y="24.3252" width="27.4979" height="27.4979" rx="6" transform="rotate(45 43.769 24.3252)" fill="#4BFBC0"/>
<path d="M37.2947 3.46847L3.88953 37.3131C2.45748 38.764 1.74145 39.4895 1.99826 40.1038C2.25506 40.7181 3.27436 40.7181 5.31296 40.7181H17.9365C18.349 40.7181 18.5552 40.7181 18.7403 40.6407C18.9254 40.5633 19.0702 40.4166 19.36 40.123L40.1415 19.068L40.1416 19.068C40.4261 18.7797 40.5683 18.6356 40.6432 18.4531C40.7181 18.2707 40.7181 18.0682 40.7181 17.6631V4.87341C40.7181 2.80191 40.7181 1.76616 40.0978 1.51158C39.4774 1.257 38.7498 1.99416 37.2947 3.46847Z" fill="url(#paint0_linear_282_40)" stroke="url(#paint1_linear_282_40)" stroke-linejoin="round"/>
<path d="M83.7877 37.3284L49.9731 3.89272C48.5235 2.45936 47.7987 1.74268 47.1842 1.99893C46.5697 2.25518 46.5688 3.27448 46.5669 5.31307L46.5555 17.9366C46.5552 18.3491 46.555 18.5553 46.6322 18.7405C46.7094 18.9256 46.856 19.0706 47.1493 19.3606L68.1855 40.1612L68.1856 40.1612C68.4736 40.446 68.6176 40.5884 68.8 40.6634C68.9823 40.7384 69.1849 40.7386 69.59 40.739L82.3796 40.7505C84.4511 40.7524 85.4869 40.7533 85.742 40.1332C85.9972 39.5131 85.2607 38.7849 83.7877 37.3284Z" fill="url(#paint2_linear_282_40)" stroke="url(#paint3_linear_282_40)" stroke-linejoin="round"/>
<path d="M3.46847 50.4871L37.3131 83.8922C38.764 85.3243 39.4895 86.0403 40.1038 85.7835C40.7181 85.5267 40.7181 84.5074 40.7181 82.4688V69.8452C40.7181 69.4328 40.7181 69.2265 40.6407 69.0415C40.5633 68.8564 40.4166 68.7115 40.123 68.4218L19.068 47.6402L19.068 47.6402C18.7797 47.3557 18.6356 47.2134 18.4531 47.1385C18.2707 47.0636 18.0682 47.0636 17.6631 47.0636H4.87341C2.80191 47.0636 1.76616 47.0636 1.51158 47.684C1.257 48.3043 1.99416 49.0319 3.46847 50.4871Z" fill="url(#paint4_linear_282_40)" stroke="url(#paint5_linear_282_40)" stroke-linejoin="round"/>
<path d="M47.1309 87.312L87.4082 46.6809L69.1644 46.6415L47.1709 68.8282L47.1309 87.312Z" fill="url(#paint6_linear_282_40)" stroke="url(#paint7_linear_282_40)"/>
<path d="M175.5 70V77H134.5C133.9 77 132.833 76.9667 131.3 76.9C129.767 76.7667 128.133 76.6 126.4 76.4C124.667 76.1333 123.167 75.7667 121.9 75.3C120.633 74.8333 120 74.2333 120 73.5V14C120 13.2667 120.633 12.6667 121.9 12.2C123.167 11.7333 124.667 11.4 126.4 11.2C128.133 10.9333 129.767 10.7667 131.3 10.7C132.833 10.5667 133.9 10.5 134.5 10.5H175.5V17.5H149V70H175.5ZM209.523 77H181.523V30.4C181.523 29.6667 182.123 29.1 183.323 28.7C184.523 28.2333 185.957 27.9 187.623 27.7C189.357 27.4333 190.957 27.2667 192.423 27.2C193.957 27.0667 194.99 27 195.523 27H225.623V33.8H209.523V77ZM230.645 27H258.645V70.2H266.645V27H294.645V90.1C294.645 90.7667 294.045 91.3333 292.845 91.8C291.645 92.2667 290.178 92.6 288.445 92.8C286.778 93.0667 285.178 93.2333 283.645 93.3C282.178 93.4333 281.178 93.5 280.645 93.5H230.845V86.7H266.645V74.2C266.245 74.8 265.411 75.3 264.145 75.7C262.945 76.0333 261.578 76.3 260.045 76.5C258.578 76.7 257.145 76.8333 255.745 76.9C254.411 76.9667 253.445 77 252.845 77H244.645C244.111 77 243.078 76.9667 241.545 76.9C240.078 76.7667 238.478 76.6 236.745 76.4C235.078 76.1333 233.645 75.7667 232.445 75.3C231.245 74.8333 230.645 74.2667 230.645 73.6V27ZM328.664 93.5H300.664V30.4C300.664 29.6667 301.264 29.1 302.464 28.7C303.664 28.2333 305.097 27.9 306.764 27.7C308.497 27.4333 310.097 27.2667 311.564 27.2C313.097 27.0667 314.131 27 314.664 27H350.664C351.197 27 352.197 27.0667 353.664 27.2C355.197 27.2667 356.797 27.4333 358.464 27.7C360.197 27.9 361.664 28.2333 362.864 28.7C364.064 29.1 364.664 29.6667 364.664 30.4V73.6C364.664 74.2667 364.064 74.8333 362.864 75.3C361.664 75.7667 360.197 76.1333 358.464 76.4C356.797 76.6 355.197 76.7667 353.664 76.9C352.197 76.9667 351.197 77 350.664 77H342.564C341.897 77 340.864 76.9667 339.464 76.9C338.064 76.8333 336.597 76.7 335.064 76.5C333.531 76.2333 332.164 75.9 330.964 75.5C329.764 75.1 328.997 74.6 328.664 74V93.5ZM328.664 70.2H336.664V33.8H328.664V70.2ZM370.684 35.8V29H379.684V15H405.684V29H417.684V35.8H405.684V70.2H417.684V77H391.684C391.15 77 390.117 76.9667 388.584 76.9C387.117 76.7667 385.517 76.6 383.784 76.4C382.117 76.1333 380.684 75.7667 379.484 75.3C378.284 74.8333 377.684 74.2667 377.684 73.6V40.1C377.684 39.5 378.117 39 378.984 38.6C379.917 38.2 381.05 37.9 382.384 37.7C383.717 37.4333 385.05 37.2333 386.384 37.1C387.784 36.9667 388.984 36.8667 389.984 36.8V35.8H370.684ZM473.711 77H437.711C437.178 77 436.144 76.9667 434.611 76.9C433.144 76.7667 431.544 76.6 429.811 76.4C428.144 76.1333 426.711 75.7667 425.511 75.3C424.311 74.8333 423.711 74.2667 423.711 73.6V30.4C423.711 29.6667 424.311 29.1 425.511 28.7C426.711 28.2333 428.144 27.9 429.811 27.7C431.544 27.4333 433.144 27.2667 434.611 27.2C436.144 27.0667 437.178 27 437.711 27H473.711C474.244 27 475.244 27.0667 476.711 27.2C478.244 27.2667 479.844 27.4333 481.511 27.7C483.244 27.9 484.711 28.2333 485.911 28.7C487.111 29.1 487.711 29.6667 487.711 30.4V73.6C487.711 74.2667 487.111 74.8333 485.911 75.3C484.711 75.7667 483.244 76.1333 481.511 76.4C479.844 76.6 478.244 76.7667 476.711 76.9C475.244 76.9667 474.244 77 473.711 77ZM451.711 70.2H459.711V33.8H451.711V70.2Z" fill="white"/>
<defs>
<linearGradient id="paint0_linear_282_40" x1="20.6234" y1="0" x2="20.6234" y2="40.7181" gradientUnits="userSpaceOnUse">
<stop stop-color="#41F6C4"/>
<stop offset="1" stop-color="#15E1D7"/>
</linearGradient>
<linearGradient id="paint1_linear_282_40" x1="20.6234" y1="0" x2="20.6234" y2="40.7181" gradientUnits="userSpaceOnUse">
<stop stop-color="#40F6C5"/>
<stop offset="1" stop-color="#13E0D8"/>
</linearGradient>
<linearGradient id="paint2_linear_282_40" x1="66.9303" y1="0.5473" x2="66.894" y2="40.7366" gradientUnits="userSpaceOnUse">
<stop stop-color="#4BFBC0"/>
<stop offset="1" stop-color="#13E0D8"/>
</linearGradient>
<linearGradient id="paint3_linear_282_40" x1="66.9303" y1="0.5473" x2="66.894" y2="40.7366" gradientUnits="userSpaceOnUse">
<stop stop-color="#4BFBC0"/>
<stop offset="1" stop-color="#12E0D9"/>
</linearGradient>
<linearGradient id="paint4_linear_282_40" x1="20.359" y1="47.0636" x2="20.359" y2="87.2529" gradientUnits="userSpaceOnUse">
<stop stop-color="#4BFBC0"/>
<stop offset="1" stop-color="#16E2D6"/>
</linearGradient>
<linearGradient id="paint5_linear_282_40" x1="20.359" y1="47.0636" x2="20.359" y2="87.2529" gradientUnits="userSpaceOnUse">
<stop stop-color="#4BFBC0"/>
<stop offset="1" stop-color="#18E2D6"/>
</linearGradient>
<linearGradient id="paint6_linear_282_40" x1="67.3159" y1="46.6375" x2="67.2324" y2="87.3555" gradientUnits="userSpaceOnUse">
<stop stop-color="#4BFBC0"/>
<stop offset="1" stop-color="#13E1D8"/>
</linearGradient>
<linearGradient id="paint7_linear_282_40" x1="67.3136" y1="46.6375" x2="67.2255" y2="87.3555" gradientUnits="userSpaceOnUse">
<stop stop-color="#4BFBC0"/>
<stop offset="1" stop-color="#14E1D8"/>
</linearGradient>
</defs>
</svg>
