<svg width="30" height="30" viewBox="0 0 30 30" fill="none" xmlns="http://www.w3.org/2000/svg">
<g clip-path="url(#clip0_64_1204)">
<path d="M13.5814 7.92853C13.4342 7.51015 13.1607 7.14776 12.7988 6.89137C12.4368 6.63499 12.0043 6.49723 11.5607 6.49711H9.89999C9.42887 6.49843 8.9748 6.6735 8.62473 6.98879C8.27466 7.30409 8.05321 7.73744 8.00279 8.20586C7.95236 8.67428 8.07651 9.14483 8.35145 9.52741C8.62639 9.90998 9.03281 10.1777 9.49285 10.2792L12.0171 10.8321C12.5337 10.9448 12.9903 11.2445 13.2992 11.6736C13.6081 12.1026 13.7475 12.6307 13.6906 13.1563C13.6337 13.6819 13.3845 14.1679 12.991 14.5209C12.5974 14.8739 12.0872 15.0689 11.5586 15.0685H10.1293C9.68625 15.0687 9.25406 14.9316 8.89218 14.676C8.5303 14.4204 8.25654 14.059 8.10857 13.6414M10.8471 6.49711V4.35425M10.8471 17.2114V15.0685M14.9336 28.9264V17.6764C14.9336 16.966 15.2158 16.2847 15.7181 15.7824C16.2204 15.28 16.9017 14.9978 17.6121 14.9978C18.3225 14.9978 19.0038 15.28 19.5062 15.7824C20.0085 16.2847 20.2907 16.966 20.2907 17.6764V23.5692H24.5764C25.7131 23.5692 26.8032 24.0208 27.6069 24.8245C28.4106 25.6282 28.8621 26.7183 28.8621 27.855V28.9264" stroke="white" stroke-width="2.14286" stroke-linecap="round" stroke-linejoin="round"/>
<path d="M10.8493 20.4943C8.87224 20.494 6.94239 19.8902 5.31775 18.7636C3.69312 17.6369 2.45114 16.0412 1.75786 14.1897C1.06458 12.3382 0.953042 10.3191 1.43817 8.40253C1.92329 6.48593 2.98195 4.76309 4.47261 3.46437C5.96326 2.16566 7.81486 1.35295 9.77985 1.13492C11.7448 0.916882 13.7296 1.30391 15.4687 2.24426C17.2078 3.18461 18.6184 4.63346 19.5118 6.39709C20.4053 8.16073 20.7391 10.1551 20.4686 12.1135" stroke="white" stroke-width="2.14286" stroke-linecap="round"/>
</g>
<defs>
<clipPath id="clip0_64_1204">
<rect width="30" height="30" rx="12" fill="white"/>
</clipPath>
</defs>
</svg>
