<svg width="30" height="30" viewBox="0 0 30 30" fill="none" xmlns="http://www.w3.org/2000/svg">
<path d="M12.6825 4.06C12.8693 3.59839 13.1896 3.20307 13.6025 2.92471C14.0154 2.64636 14.502 2.49765 15 2.49765C15.498 2.49765 15.9846 2.64636 16.3975 2.92471C16.8104 3.20307 17.1307 3.59839 17.3175 4.06C19.1663 4.56779 20.7971 5.66873 21.9592 7.19358C23.1214 8.71843 23.7505 10.5828 23.75 12.5V18.3712L26.04 21.8062C26.1656 21.9945 26.2377 22.2133 26.2487 22.4394C26.2597 22.6654 26.2091 22.8902 26.1023 23.0897C25.9956 23.2892 25.8367 23.4561 25.6425 23.5723C25.4484 23.6886 25.2263 23.75 25 23.75H19.3313C19.1807 24.7914 18.6601 25.7437 17.8646 26.4324C17.0692 27.1212 16.0522 27.5003 15 27.5003C13.9478 27.5003 12.9308 27.1212 12.1354 26.4324C11.3399 25.7437 10.8193 24.7914 10.6688 23.75H5C4.7737 23.75 4.55163 23.6886 4.35749 23.5723C4.16335 23.4561 4.00442 23.2892 3.89766 23.0897C3.7909 22.8902 3.74031 22.6654 3.75129 22.4394C3.76227 22.2133 3.83441 21.9945 3.96 21.8062L6.25 18.3712V12.5C6.25 8.47 8.975 5.075 12.6825 4.06ZM13.2325 23.75C13.3616 24.1158 13.601 24.4326 13.9177 24.6566C14.2343 24.8807 14.6127 25.001 15.0006 25.001C15.3886 25.001 15.7669 24.8807 16.0836 24.6566C16.4003 24.4326 16.6397 24.1158 16.7688 23.75H13.2325ZM15 6.25C13.3424 6.25 11.7527 6.90848 10.5806 8.08058C9.40848 9.25268 8.75 10.8424 8.75 12.5V18.75C8.75006 18.9969 8.67699 19.2383 8.54 19.4437L7.33625 21.25H22.6625L21.4588 19.4437C21.3222 19.2382 21.2496 18.9968 21.25 18.75V12.5C21.25 10.8424 20.5915 9.25268 19.4194 8.08058C18.2473 6.90848 16.6576 6.25 15 6.25Z" fill="white"/>
</svg>
