<svg width="30" height="30" viewBox="0 0 30 30" fill="none" xmlns="http://www.w3.org/2000/svg">
<path d="M21.25 2.5C22.2445 2.5 23.1984 2.89509 23.9016 3.59835C24.6049 4.30161 25 5.25544 25 6.25V21.25C25.2926 21.2503 25.5759 21.3532 25.8004 21.5409C26.0249 21.7286 26.1765 21.9891 26.2287 22.277C26.2809 22.5649 26.2304 22.8621 26.0861 23.1166C25.9417 23.3712 25.7126 23.567 25.4387 23.67L15.4387 27.42C15.1558 27.526 14.8441 27.526 14.5612 27.42L4.56122 23.67C4.28732 23.567 4.05824 23.3712 3.91389 23.1166C3.76954 22.8621 3.71907 22.5649 3.77127 22.277C3.82348 21.9891 3.97504 21.7286 4.19957 21.5409C4.4241 21.3532 4.70735 21.2503 4.99997 21.25V6.25C4.99997 5.25544 5.39506 4.30161 6.09832 3.59835C6.80159 2.89509 7.75541 2.5 8.74997 2.5H21.25ZM21.25 5H8.74997C8.44381 5.00004 8.1483 5.11244 7.91951 5.31589C7.69072 5.51934 7.54455 5.79969 7.50872 6.10375L7.49997 6.25V22.1025L15 24.915L22.5 22.1025V6.25C22.4999 5.94383 22.3875 5.64833 22.1841 5.41954C21.9806 5.19074 21.7003 5.04457 21.3962 5.00875L21.25 5ZM15 6.25C15.3061 6.25004 15.6016 6.36244 15.8304 6.56589C16.0592 6.76934 16.2054 7.04969 16.2412 7.35375L16.25 7.5V8.75H18.75C19.0686 8.75035 19.375 8.87235 19.6067 9.09106C19.8384 9.30977 19.9778 9.60869 19.9964 9.92674C20.0151 10.2448 19.9116 10.558 19.7071 10.8023C19.5027 11.0466 19.2126 11.2036 18.8962 11.2413L18.75 11.25H12.5C12.3438 11.2497 12.1932 11.3079 12.0777 11.4131C11.9623 11.5184 11.8905 11.663 11.8764 11.8185C11.8623 11.9741 11.9069 12.1293 12.0015 12.2535C12.0961 12.3778 12.2338 12.4622 12.3875 12.49L12.5 12.5H17.5C18.3123 12.498 19.0935 12.8125 19.678 13.3767C20.2625 13.9409 20.6042 14.7105 20.6309 15.5224C20.6576 16.3344 20.367 17.1248 19.8208 17.7261C19.2746 18.3274 18.5157 18.6924 17.705 18.7437L17.5 18.75H16.25V20C16.2496 20.3186 16.1276 20.625 15.9089 20.8567C15.6902 21.0884 15.3913 21.2278 15.0732 21.2465C14.7552 21.2651 14.442 21.1617 14.1977 20.9572C13.9534 20.7527 13.7964 20.4626 13.7587 20.1463L13.75 20V18.75H11.25C10.9314 18.7496 10.6249 18.6277 10.3933 18.4089C10.1616 18.1902 10.0222 17.8913 10.0035 17.5733C9.98484 17.2552 10.0883 16.942 10.2928 16.6977C10.4973 16.4534 10.7874 16.2964 11.1037 16.2587L11.25 16.25H17.5C17.6562 16.2503 17.8068 16.1921 17.9222 16.0869C18.0376 15.9816 18.1095 15.837 18.1236 15.6815C18.1377 15.5259 18.093 15.3707 17.9984 15.2465C17.9039 15.1222 17.7662 15.0378 17.6125 15.01L17.5 15H12.5C11.6876 15.002 10.9064 14.6875 10.322 14.1233C9.73749 13.5591 9.39571 12.7895 9.36905 11.9776C9.3424 11.1656 9.63296 10.3752 10.1792 9.77391C10.7253 9.17257 11.4842 8.80756 12.295 8.75625L12.5 8.75H13.75V7.5C13.75 7.16848 13.8817 6.85054 14.1161 6.61612C14.3505 6.3817 14.6685 6.25 15 6.25Z" fill="white"/>
</svg>
