<svg width="50" height="50" viewBox="0 0 50 50" fill="none" xmlns="http://www.w3.org/2000/svg">
<path d="M43.7501 23.3001V14.5834C43.7501 14.0308 43.5307 13.501 43.14 13.1103C42.7493 12.7196 42.2193 12.5001 41.6668 12.5001H8.33353C7.78096 12.5001 7.25106 12.2806 6.86036 11.8899C6.46966 11.4992 6.25016 10.9693 6.25016 10.4167C6.25016 9.86423 6.46966 9.3343 6.86036 8.94364C7.25106 8.5529 7.78096 8.33342 8.33353 8.33342H41.6668C42.2193 8.33342 42.7493 8.11393 43.14 7.7232C43.5307 7.33252 43.7501 6.80262 43.7501 6.25008C43.7501 5.69754 43.5307 5.16764 43.14 4.77694C42.7493 4.38624 42.2193 4.16675 41.6668 4.16675H8.33353C6.67589 4.16675 5.08618 4.82523 3.91408 5.99733C2.74197 7.16943 2.0835 8.75915 2.0835 10.4167V39.5834C2.0835 41.241 2.74197 42.8307 3.91408 44.0028C5.08618 45.175 6.67589 45.8334 8.33353 45.8334H41.6668C42.2193 45.8334 42.7493 45.6139 43.14 45.2232C43.5307 44.8325 43.7501 44.3026 43.7501 43.7501V35.0334C44.9679 34.6092 46.0235 33.8164 46.7705 32.7652C47.5175 31.7139 47.9188 30.4564 47.9188 29.1667C47.9188 27.8772 47.5175 26.6195 46.7705 25.5683C46.0235 24.5171 44.9679 23.7244 43.7501 23.3001ZM39.5835 41.6667H8.33353C7.78096 41.6667 7.25106 41.4472 6.86036 41.0566C6.46966 40.6658 6.25016 40.1359 6.25016 39.5834V16.2834C6.91736 16.5302 7.62214 16.6598 8.33353 16.6667H39.5835V22.9167H33.3335C31.6759 22.9167 30.0862 23.5753 28.914 24.7473C27.742 25.9194 27.0835 27.5092 27.0835 29.1667C27.0835 30.8244 27.742 32.4141 28.914 33.5861C30.0862 34.7583 31.6759 35.4167 33.3335 35.4167H39.5835V41.6667ZM41.6668 31.2501H33.3335C32.781 31.2501 32.251 31.0306 31.8604 30.6399C31.4696 30.2492 31.2501 29.7193 31.2501 29.1667C31.2501 28.6142 31.4696 28.0843 31.8604 27.6936C32.251 27.3029 32.781 27.0834 33.3335 27.0834H41.6668C42.2193 27.0834 42.7493 27.3029 43.14 27.6936C43.5307 28.0843 43.7501 28.6142 43.7501 29.1667C43.7501 29.7193 43.5307 30.2492 43.14 30.6399C42.7493 31.0306 42.2193 31.2501 41.6668 31.2501Z" fill="#24126A"/>
</svg>
